{
	"asset":{
		"generator":"Khronos glTF Blender I/O v3.5.30",
		"version":"2.0"
	},
	"extensionsUsed":[
		"KHR_materials_unlit"
	],
	"scene":0,
	"scenes":[
		{
			"name":"Scene",
			"nodes":[
				3,
				10
			]
		}
	],
	"nodes":[
		{
			"name":"Cinema_Asset"
		},
		{
			"children":[
				0
			],
			"name":"RootNode"
		},
		{
			"children":[
				1
			],
			"name":"80c151a32bd549b3a6cf49407ac42f29.fbx",
			"rotation":[
				0.70710688829422,
				0,
				0,
				0.7071066498756409
			]
		},
		{
			"children":[
				2
			],
			"name":"Sketchfab_model",
			"rotation":[
				-0.70710688829422,
				0,
				0,
				0.7071066498756409
			],
			"scale":[
				0.06092908978462219,
				0.06092909350991249,
				0.06092909350991249
			]
		},
		{
			"mesh":0,
			"name":"Cinema_Asset_rig_initialShadingGroup1_0"
		},
		{
			"mesh":1,
			"name":"Cinema_Asset_rig_initialShadingGroup1_0.001"
		},
		{
			"name":"Cinema_Asset_rig_initialShadingGroup1_0.002"
		},
		{
			"children":[
				4,
				5,
				6
			],
			"name":"Cinema_Asset.001"
		},
		{
			"children":[
				7
			],
			"name":"RootNode.001"
		},
		{
			"children":[
				8
			],
			"name":"80c151a32bd549b3a6cf49407ac42f29.fbx.001",
			"rotation":[
				0.70710688829422,
				0,
				0,
				0.7071066498756409
			]
		},
		{
			"children":[
				9
			],
			"name":"Sketchfab_model.001",
			"rotation":[
				-0.70710688829422,
				0,
				0,
				0.7071066498756409
			],
			"scale":[
				0.06092908978462219,
				0.06092909350991249,
				0.06092909350991249
			]
		}
	],
	"materials":[
		{
			"doubleSided":true,
			"extensions":{
				"KHR_materials_unlit":{}
			},
			"name":"rig_initialShadingGroup1.001",
			"pbrMetallicRoughness":{
				"baseColorTexture":{
					"index":0,
					"texCoord":0
				},
				"metallicFactor":0,
				"roughnessFactor":0.9
			}
		}
	],
	"meshes":[
		{
			"name":"Cinema_Asset_rig_initialShadingGroup1_0.001",
			"primitives":[
				{
					"attributes":{
						"POSITION":0,
						"TEXCOORD_0":1,
						"TEXCOORD_1":2,
						"NORMAL":3
					},
					"indices":4,
					"material":0
				}
			]
		},
		{
			"name":"Cinema_Asset_rig_initialShadingGroup1_0.002",
			"primitives":[
				{
					"attributes":{
						"POSITION":5,
						"TEXCOORD_0":6,
						"TEXCOORD_1":7,
						"NORMAL":8
					},
					"indices":9,
					"material":0
				}
			]
		}
	],
	"textures":[
		{
			"sampler":0,
			"source":0
		}
	],
	"images":[
		{
			"bufferView":5,
			"mimeType":"image/png",
			"name":"rig_initialShadingGroup1_baseColor"
		}
	],
	"accessors":[
		{
			"bufferView":0,
			"componentType":5126,
			"count":1464,
			"max":[
				41.22234344482422,
				89.95085906982422,
				40.37476348876953
			],
			"min":[
				-32.74314498901367,
				-0.002449000021442771,
				-44.702518463134766
			],
			"type":"VEC3"
		},
		{
			"bufferView":1,
			"componentType":5126,
			"count":1464,
			"type":"VEC2"
		},
		{
			"bufferView":2,
			"componentType":5126,
			"count":1464,
			"type":"VEC2"
		},
		{
			"bufferView":3,
			"componentType":5126,
			"count":1464,
			"type":"VEC3"
		},
		{
			"bufferView":4,
			"componentType":5123,
			"count":2745,
			"type":"SCALAR"
		},
		{
			"bufferView":6,
			"componentType":5126,
			"count":44,
			"max":[
				29.432247161865234,
				7.19305419921875,
				-39.998016357421875
			],
			"min":[
				23.72054100036621,
				0,
				-44.702518463134766
			],
			"type":"VEC3"
		},
		{
			"bufferView":7,
			"componentType":5126,
			"count":44,
			"type":"VEC2"
		},
		{
			"bufferView":8,
			"componentType":5126,
			"count":44,
			"type":"VEC2"
		},
		{
			"bufferView":9,
			"componentType":5126,
			"count":44,
			"type":"VEC3"
		},
		{
			"bufferView":10,
			"componentType":5123,
			"count":54,
			"type":"SCALAR"
		}
	],
	"bufferViews":[
		{
			"buffer":0,
			"byteLength":17568,
			"byteOffset":0,
			"target":34962
		},
		{
			"buffer":0,
			"byteLength":11712,
			"byteOffset":17568,
			"target":34962
		},
		{
			"buffer":0,
			"byteLength":11712,
			"byteOffset":29280,
			"target":34962
		},
		{
			"buffer":0,
			"byteLength":17568,
			"byteOffset":40992,
			"target":34962
		},
		{
			"buffer":0,
			"byteLength":5490,
			"byteOffset":58560,
			"target":34963
		},
		{
			"buffer":0,
			"byteLength":452296,
			"byteOffset":64052
		},
		{
			"buffer":0,
			"byteLength":528,
			"byteOffset":516348,
			"target":34962
		},
		{
			"buffer":0,
			"byteLength":352,
			"byteOffset":516876,
			"target":34962
		},
		{
			"buffer":0,
			"byteLength":352,
			"byteOffset":517228,
			"target":34962
		},
		{
			"buffer":0,
			"byteLength":528,
			"byteOffset":517580,
			"target":34962
		},
		{
			"buffer":0,
			"byteLength":108,
			"byteOffset":518108,
			"target":34963
		}
	],
	"samplers":[
		{
			"magFilter":9729,
			"minFilter":9987
		}
	],
	"buffers":[
		{
			"byteLength":518216,
			"uri":"data:application/octet-stream;base64,"
		}
	]
}
