{
	"asset":{
		"generator":"Khronos glTF Blender I/O v3.5.30",
		"version":"2.0"
	},
	"scene":0,
	"scenes":[
		{
			"name":"Scene",
			"nodes":[
				10
			]
		}
	],
	"nodes":[
		{
			"name":"Object_7"
		},
		{
			"children":[
				0
			],
			"name":"Camera.001",
			"rotation":[
				0.036255765706300735,
				0.40282967686653137,
				0.08198098838329315,
				0.9108747839927673
			],
			"scale":[
				100.00000762939453,
				100.00000762939453,
				99.99999237060547
			],
			"translation":[
				-927.9940795898438,
				-44.787757873535156,
				1121.4874267578125
			]
		},
		{
			"name":"Object_5"
		},
		{
			"children":[
				2
			],
			"name":"Object_4",
			"rotation":[
				0.7071068286895752,
				0,
				0,
				0.7071067094802856
			]
		},
		{
			"children":[
				3
			],
			"name":"Light.001",
			"rotation":[
				0.16907574236392975,
				0.7558803558349609,
				-0.27217134833335876,
				0.5709474682807922
			],
			"scale":[
				99.99999237060547,
				99.99998474121094,
				100
			],
			"translation":[
				407.6245422363281,
				590.3861694335938,
				-100.54537963867188
			]
		},
		{
			"mesh":0,
			"name":"Plane_Material.001_0",
			"translation":[
				0.5959250330924988,
				0.5251001119613647,
				0.005677284672856331
			]
		},
		{
			"mesh":1,
			"name":"Plane_Material_0"
		},
		{
			"children":[
				5,
				6
			],
			"name":"Plane",
			"rotation":[
				-0.7071069478988647,
				0,
				0,
				0.7071066498756409
			],
			"scale":[
				819.8505249023438,
				819.8504028320312,
				819.8504028320312
			]
		},
		{
			"children":[
				1,
				4,
				7
			],
			"name":"RootNode"
		},
		{
			"children":[
				8
			],
			"name":"Ponyville.fbx",
			"rotation":[
				0.70710688829422,
				0,
				0,
				0.7071066498756409
			],
			"scale":[
				0.009999999776482582,
				0.009999999776482582,
				0.009999999776482582
			]
		},
		{
			"children":[
				9
			],
			"name":"Sketchfab_model",
			"rotation":[
				-0.70710688829422,
				0,
				0,
				0.7071066498756409
			]
		}
	],
	"materials":[
		{
			"doubleSided":true,
			"name":"Material.002",
			"pbrMetallicRoughness":{
				"baseColorTexture":{
					"index":0
				},
				"metallicFactor":0,
				"roughnessFactor":0.9338630437850952
			}
		},
		{
			"doubleSided":true,
			"name":"Material.001",
			"pbrMetallicRoughness":{
				"baseColorFactor":[
					0.10447175800800323,
					0.3362976908683777,
					0.10835094004869461,
					1
				],
				"metallicFactor":0,
				"roughnessFactor":0.4000000059604645
			}
		}
	],
	"meshes":[
		{
			"name":"Plane_Material.001_0",
			"primitives":[
				{
					"attributes":{
						"POSITION":0,
						"TEXCOORD_0":1,
						"NORMAL":2
					},
					"indices":3,
					"material":0
				}
			]
		},
		{
			"name":"Plane_Material_0",
			"primitives":[
				{
					"attributes":{
						"POSITION":4,
						"TEXCOORD_0":5,
						"NORMAL":6
					},
					"indices":7,
					"material":1
				}
			]
		}
	],
	"textures":[
		{
			"sampler":0,
			"source":0
		}
	],
	"images":[
		{
			"bufferView":4,
			"mimeType":"image/png",
			"name":"Material"
		}
	],
	"accessors":[
		{
			"bufferView":0,
			"componentType":5126,
			"count":231,
			"max":[
				0.21342290937900543,
				0.21816210448741913,
				0.5305963754653931
			],
			"min":[
				-0.21342290937900543,
				-0.1845596879720688,
				-0.033661145716905594
			],
			"type":"VEC3"
		},
		{
			"bufferView":1,
			"componentType":5126,
			"count":231,
			"type":"VEC2"
		},
		{
			"bufferView":2,
			"componentType":5126,
			"count":231,
			"type":"VEC3"
		},
		{
			"bufferView":3,
			"componentType":5123,
			"count":396,
			"type":"SCALAR"
		},
		{
			"bufferView":5,
			"componentType":5126,
			"count":28,
			"max":[
				1.1685349941253662,
				0.9260683655738831,
				-0.0019959677010774612
			],
			"min":[
				-0.8495659828186035,
				-0.6789885759353638,
				-0.11214660108089447
			],
			"type":"VEC3"
		},
		{
			"bufferView":6,
			"componentType":5126,
			"count":28,
			"type":"VEC2"
		},
		{
			"bufferView":7,
			"componentType":5126,
			"count":28,
			"type":"VEC3"
		},
		{
			"bufferView":8,
			"componentType":5123,
			"count":30,
			"type":"SCALAR"
		}
	],
	"bufferViews":[
		{
			"buffer":0,
			"byteLength":2772,
			"byteOffset":0,
			"target":34962
		},
		{
			"buffer":0,
			"byteLength":1848,
			"byteOffset":2772,
			"target":34962
		},
		{
			"buffer":0,
			"byteLength":2772,
			"byteOffset":4620,
			"target":34962
		},
		{
			"buffer":0,
			"byteLength":792,
			"byteOffset":7392,
			"target":34963
		},
		{
			"buffer":0,
			"byteLength":131061,
			"byteOffset":8184
		},
		{
			"buffer":0,
			"byteLength":336,
			"byteOffset":139248,
			"target":34962
		},
		{
			"buffer":0,
			"byteLength":224,
			"byteOffset":139584,
			"target":34962
		},
		{
			"buffer":0,
			"byteLength":336,
			"byteOffset":139808,
			"target":34962
		},
		{
			"buffer":0,
			"byteLength":60,
			"byteOffset":140144,
			"target":34963
		}
	],
	"samplers":[
		{
			"magFilter":9729,
			"minFilter":9987
		}
	],
	"buffers":[
		{
			"byteLength":140204,
			"uri":"data:application/octet-stream;base64,"
		}
	]
}
