{
	"asset":{
		"generator":"Khronos glTF Blender I/O v3.5.30",
		"version":"2.0"
	},
	"scene":0,
	"scenes":[
		{
			"name":"Scene",
			"nodes":[
				3,
				26,
				30
			]
		}
	],
	"nodes":[
		{
			"name":"pCube3",
			"scale":[
				0.010000000707805157,
				0.009999999776482582,
				0.010000000707805157
			]
		},
		{
			"children":[
				0
			],
			"name":"RootNode"
		},
		{
			"children":[
				1
			],
			"name":"3ab5b255f682430da4b8255708482943.fbx",
			"rotation":[
				0.70710688829422,
				0,
				0,
				0.7071066498756409
			]
		},
		{
			"children":[
				2
			],
			"name":"Sketchfab_model",
			"rotation":[
				-0.0005499532562680542,
				-0.7071065306663513,
				-0.7071065902709961,
				0.0005499532562680542
			],
			"translation":[
				1.711736695142463e-05,
				3.907676935195923,
				3.5387078241910785e-05
			]
		},
		{
			"mesh":0,
			"name":"Cylinder.004"
		},
		{
			"children":[
				4
			],
			"name":"Cylinder.000",
			"rotation":[
				0,
				0,
				0.6504306793212891,
				0.7595656514167786
			],
			"translation":[
				-4.447850227355957,
				-2.6227800846099854,
				0
			]
		},
		{
			"mesh":1,
			"name":"Cylinder.002"
		},
		{
			"mesh":2,
			"name":"Cylinder.003"
		},
		{
			"children":[
				6,
				7
			],
			"name":"Cylinder.001",
			"scale":[
				1.064810037612915,
				1.064810037612915,
				1.064810037612915
			],
			"translation":[
				-3.816699981689453,
				8.548319816589355,
				0.24587032198905945
			]
		},
		{
			"mesh":3,
			"name":"Cylinder.006"
		},
		{
			"mesh":4,
			"name":"Cylinder.007"
		},
		{
			"children":[
				9,
				10
			],
			"name":"Cylinder.005",
			"rotation":[
				0.15044866502285004,
				0.043859608471393585,
				-0.25321483612060547,
				0.9546328186988831
			],
			"scale":[
				2.7237401008605957,
				2.723743438720703,
				2.723740577697754
			],
			"translation":[
				-15.624099731445312,
				-5.88415002822876,
				8.332531929016113
			]
		},
		{
			"mesh":5,
			"name":"Icosphere.001"
		},
		{
			"mesh":6,
			"name":"Icosphere.002"
		},
		{
			"children":[
				12,
				13
			],
			"name":"Icosphere.003",
			"rotation":[
				0,
				0.3752671480178833,
				0,
				0.9269167184829712
			],
			"scale":[
				3.0079376697540283,
				3.0079305171966553,
				3.0079376697540283
			],
			"translation":[
				8.519659996032715,
				-0.6319000124931335,
				7.049971103668213
			]
		},
		{
			"name":"Lamp.001",
			"translation":[
				-2.7418136596679688e-06,
				0,
				2.86102294921875e-06
			]
		},
		{
			"children":[
				15
			],
			"name":"Lamp",
			"rotation":[
				0.1915203481912613,
				-0.49127092957496643,
				0.551858127117157,
				0.646084725856781
			],
			"scale":[
				1.0000020265579224,
				1,
				0.9999968409538269
			],
			"translation":[
				-9.705829620361328,
				-29.473003387451172,
				19.040029525756836
			]
		},
		{
			"name":"Lamp.003",
			"translation":[
				5.7220458984375e-06,
				0,
				5.245208740234375e-06
			]
		},
		{
			"children":[
				17
			],
			"name":"Lamp.002",
			"rotation":[
				-0.2229185849428177,
				-0.20615115761756897,
				0.3740740120410919,
				0.8762863278388977
			],
			"scale":[
				1,
				0.9999963641166687,
				1
			],
			"translation":[
				-9.705829620361328,
				33.385520935058594,
				19.040029525756836
			]
		},
		{
			"mesh":7,
			"name":"Plane.003"
		},
		{
			"children":[
				19
			],
			"name":"Plane",
			"scale":[
				13.375060081481934,
				13.375061988830566,
				13.375061988830566
			],
			"translation":[
				-4.062039852142334,
				-3.5560505390167236,
				-0.9181996583938599
			]
		},
		{
			"name":"Plane.004",
			"scale":[
				12.22803020477295,
				12.228032112121582,
				12.228032112121582
			],
			"translation":[
				-4.062039852142334,
				-3.5560505390167236,
				-2.755079507827759
			]
		},
		{
			"mesh":8,
			"name":"Plane.001"
		},
		{
			"mesh":9,
			"name":"Plane.002"
		},
		{
			"children":[
				22,
				23
			],
			"name":"Plane.007",
			"scale":[
				1.6861300468444824,
				1.4188499450683594,
				1.6861302852630615
			],
			"translation":[
				-3.7042200565338135,
				-14.496452331542969,
				12.632599830627441
			]
		},
		{
			"children":[
				5,
				8,
				11,
				14,
				16,
				18,
				20,
				21,
				24
			],
			"name":"Root"
		},
		{
			"children":[
				25
			],
			"name":"Sketchfab_model.001",
			"rotation":[
				-0.70710688829422,
				0,
				0,
				0.7071066498756409
			],
			"translation":[
				0,
				3.907676935195923,
				0
			]
		},
		{
			"mesh":10,
			"name":"Cylinder.008"
		},
		{
			"children":[
				27
			],
			"name":"Cylinder.009",
			"scale":[
				1.064810037612915,
				1.064810037612915,
				1.064810037612915
			],
			"translation":[
				-3.816699981689453,
				8.548319816589355,
				0.24587032198905945
			]
		},
		{
			"children":[
				28
			],
			"name":"Root.001"
		},
		{
			"children":[
				29
			],
			"name":"Sketchfab_model.002",
			"rotation":[
				-0.70710688829422,
				0,
				0,
				0.7071066498756409
			],
			"translation":[
				0,
				3.907676935195923,
				0
			]
		}
	],
	"materials":[
		{
			"doubleSided":true,
			"name":"Material.001",
			"pbrMetallicRoughness":{
				"baseColorFactor":[
					0.15426279604434967,
					0.03292083740234375,
					0.03292083740234375,
					1
				],
				"metallicFactor":0,
				"roughnessFactor":0.6000000238418579
			}
		},
		{
			"doubleSided":true,
			"name":"Material.002",
			"pbrMetallicRoughness":{
				"baseColorFactor":[
					0.13370588421821594,
					0.28069689869880676,
					0.08395107090473175,
					1
				],
				"metallicFactor":0,
				"roughnessFactor":0.6000000238418579
			}
		},
		{
			"doubleSided":true,
			"name":"Material.004",
			"pbrMetallicRoughness":{
				"baseColorFactor":[
					0.1651465743780136,
					0.3154568076133728,
					0.08628977090120316,
					1
				],
				"metallicFactor":0,
				"roughnessFactor":0.6000000238418579
			}
		},
		{
			"doubleSided":true,
			"name":"Material.005",
			"pbrMetallicRoughness":{
				"baseColorFactor":[
					0.15426279604434967,
					0.03292083740234375,
					0.03292083740234375,
					1
				],
				"metallicFactor":0,
				"roughnessFactor":0.6000000238418579
			}
		}
	],
	"meshes":[
		{
			"name":"Cylinder.000",
			"primitives":[
				{
					"attributes":{
						"POSITION":0,
						"NORMAL":1
					},
					"indices":2,
					"material":0
				}
			]
		},
		{
			"name":"Cylinder.001",
			"primitives":[
				{
					"attributes":{
						"POSITION":3,
						"NORMAL":4
					},
					"indices":5,
					"material":0
				}
			]
		},
		{
			"name":"Cylinder.002",
			"primitives":[
				{
					"attributes":{
						"POSITION":6,
						"NORMAL":7
					},
					"indices":8,
					"material":1
				}
			]
		},
		{
			"name":"Cylinder.003",
			"primitives":[
				{
					"attributes":{
						"POSITION":9,
						"NORMAL":10
					},
					"indices":11,
					"material":1
				}
			]
		},
		{
			"name":"Cylinder.004",
			"primitives":[
				{
					"attributes":{
						"POSITION":12,
						"NORMAL":13
					},
					"indices":14,
					"material":0
				}
			]
		},
		{
			"name":"Icosphere.003",
			"primitives":[
				{
					"attributes":{
						"POSITION":15,
						"NORMAL":16
					},
					"indices":17,
					"material":1
				}
			]
		},
		{
			"name":"Icosphere.001",
			"primitives":[
				{
					"attributes":{
						"POSITION":18,
						"NORMAL":19
					},
					"indices":20,
					"material":0
				}
			]
		},
		{
			"name":"Plane",
			"primitives":[
				{
					"attributes":{
						"POSITION":21,
						"NORMAL":22
					},
					"indices":23,
					"material":2
				}
			]
		},
		{
			"name":"Plane.007",
			"primitives":[
				{
					"attributes":{
						"POSITION":24,
						"NORMAL":25
					},
					"indices":26,
					"material":1
				}
			]
		},
		{
			"name":"Plane.001",
			"primitives":[
				{
					"attributes":{
						"POSITION":27,
						"NORMAL":28
					},
					"indices":29,
					"material":0
				}
			]
		},
		{
			"name":"Cylinder.005",
			"primitives":[
				{
					"attributes":{
						"POSITION":30,
						"NORMAL":31
					},
					"indices":5,
					"material":3
				}
			]
		}
	],
	"accessors":[
		{
			"bufferView":0,
			"componentType":5126,
			"count":744,
			"max":[
				2.164639949798584,
				3.2514100074768066,
				10.184659957885742
			],
			"min":[
				-4.200530052185059,
				-2.825659990310669,
				-1.542199969291687
			],
			"type":"VEC3"
		},
		{
			"bufferView":1,
			"componentType":5126,
			"count":744,
			"type":"VEC3"
		},
		{
			"bufferView":2,
			"componentType":5123,
			"count":1050,
			"type":"SCALAR"
		},
		{
			"bufferView":3,
			"componentType":5126,
			"count":404,
			"max":[
				1.844939947128296,
				1.7094199657440186,
				7.031970024108887
			],
			"min":[
				-1.8729100227355957,
				-2.0295701026916504,
				-1.542199969291687
			],
			"type":"VEC3"
		},
		{
			"bufferView":4,
			"componentType":5126,
			"count":404,
			"type":"VEC3"
		},
		{
			"bufferView":5,
			"componentType":5123,
			"count":570,
			"type":"SCALAR"
		},
		{
			"bufferView":6,
			"componentType":5126,
			"count":1484,
			"max":[
				4.590050220489502,
				3.6122100353240967,
				11.231670379638672
			],
			"min":[
				-4.672130107879639,
				-4.08027982711792,
				4.074649810791016
			],
			"type":"VEC3"
		},
		{
			"bufferView":7,
			"componentType":5126,
			"count":1484,
			"type":"VEC3"
		},
		{
			"bufferView":8,
			"componentType":5123,
			"count":2070,
			"type":"SCALAR"
		},
		{
			"bufferView":9,
			"componentType":5126,
			"count":1379,
			"max":[
				1.05253005027771,
				3.0742599964141846,
				1.153630018234253
			],
			"min":[
				-2.3945200443267822,
				-1,
				-1.2676600217819214
			],
			"type":"VEC3"
		},
		{
			"bufferView":10,
			"componentType":5126,
			"count":1379,
			"type":"VEC3"
		},
		{
			"bufferView":11,
			"componentType":5123,
			"count":1944,
			"type":"SCALAR"
		},
		{
			"bufferView":12,
			"componentType":5126,
			"count":810,
			"max":[
				0.9602699875831604,
				2.2475500106811523,
				0.35131001472473145
			],
			"min":[
				-1.4852099418640137,
				-0.47859999537467957,
				-3.82273006439209
			],
			"type":"VEC3"
		},
		{
			"bufferView":13,
			"componentType":5126,
			"count":810,
			"type":"VEC3"
		},
		{
			"bufferView":14,
			"componentType":5123,
			"count":1050,
			"type":"SCALAR"
		},
		{
			"bufferView":15,
			"componentType":5126,
			"count":480,
			"max":[
				1.2858799695968628,
				0.8506399989128113,
				1.7594000101089478
			],
			"min":[
				-1.7072700262069702,
				-2.0239100456237793,
				-1.3389500379562378
			],
			"type":"VEC3"
		},
		{
			"bufferView":16,
			"componentType":5126,
			"count":480,
			"type":"VEC3"
		},
		{
			"bufferView":17,
			"componentType":5123,
			"count":480,
			"type":"SCALAR"
		},
		{
			"bufferView":18,
			"componentType":5126,
			"count":346,
			"max":[
				2.333169937133789,
				-0.15897999703884125,
				0.6243600249290466
			],
			"min":[
				-0.9598199725151062,
				-1.4450600147247314,
				-2.627239942550659
			],
			"type":"VEC3"
		},
		{
			"bufferView":19,
			"componentType":5126,
			"count":346,
			"type":"VEC3"
		},
		{
			"bufferView":20,
			"componentType":5123,
			"count":450,
			"type":"SCALAR"
		},
		{
			"bufferView":21,
			"componentType":5126,
			"count":177,
			"max":[
				1.3223575353622437,
				1.3580929040908813,
				0
			],
			"min":[
				-1.371654748916626,
				-1.3352692127227783,
				-0.286029577255249
			],
			"type":"VEC3"
		},
		{
			"bufferView":22,
			"componentType":5126,
			"count":177,
			"type":"VEC3"
		},
		{
			"bufferView":23,
			"componentType":5123,
			"count":672,
			"type":"SCALAR"
		},
		{
			"bufferView":24,
			"componentType":5126,
			"count":924,
			"max":[
				2.304260015487671,
				2.382460117340088,
				0.15121999382972717
			],
			"min":[
				-2.7947099208831787,
				-2.811729907989502,
				-4.154379844665527
			],
			"type":"VEC3"
		},
		{
			"bufferView":25,
			"componentType":5126,
			"count":924,
			"type":"VEC3"
		},
		{
			"bufferView":26,
			"componentType":5123,
			"count":1620,
			"type":"SCALAR"
		},
		{
			"bufferView":27,
			"componentType":5126,
			"count":314,
			"max":[
				1.1224499940872192,
				1.0216399431228638,
				-2.5821900367736816
			],
			"min":[
				-1.3166699409484863,
				-1.593250036239624,
				-8.273839950561523
			],
			"type":"VEC3"
		},
		{
			"bufferView":28,
			"componentType":5126,
			"count":314,
			"type":"VEC3"
		},
		{
			"bufferView":29,
			"componentType":5123,
			"count":450,
			"type":"SCALAR"
		},
		{
			"bufferView":30,
			"componentType":5126,
			"count":404,
			"max":[
				1.844939947128296,
				1.7094199657440186,
				7.031970024108887
			],
			"min":[
				-1.8729100227355957,
				-2.0295701026916504,
				-1.542199969291687
			],
			"type":"VEC3"
		},
		{
			"bufferView":31,
			"componentType":5126,
			"count":404,
			"type":"VEC3"
		}
	],
	"bufferViews":[
		{
			"buffer":0,
			"byteLength":8928,
			"byteOffset":0,
			"target":34962
		},
		{
			"buffer":0,
			"byteLength":8928,
			"byteOffset":8928,
			"target":34962
		},
		{
			"buffer":0,
			"byteLength":2100,
			"byteOffset":17856,
			"target":34963
		},
		{
			"buffer":0,
			"byteLength":4848,
			"byteOffset":19956,
			"target":34962
		},
		{
			"buffer":0,
			"byteLength":4848,
			"byteOffset":24804,
			"target":34962
		},
		{
			"buffer":0,
			"byteLength":1140,
			"byteOffset":29652,
			"target":34963
		},
		{
			"buffer":0,
			"byteLength":17808,
			"byteOffset":30792,
			"target":34962
		},
		{
			"buffer":0,
			"byteLength":17808,
			"byteOffset":48600,
			"target":34962
		},
		{
			"buffer":0,
			"byteLength":4140,
			"byteOffset":66408,
			"target":34963
		},
		{
			"buffer":0,
			"byteLength":16548,
			"byteOffset":70548,
			"target":34962
		},
		{
			"buffer":0,
			"byteLength":16548,
			"byteOffset":87096,
			"target":34962
		},
		{
			"buffer":0,
			"byteLength":3888,
			"byteOffset":103644,
			"target":34963
		},
		{
			"buffer":0,
			"byteLength":9720,
			"byteOffset":107532,
			"target":34962
		},
		{
			"buffer":0,
			"byteLength":9720,
			"byteOffset":117252,
			"target":34962
		},
		{
			"buffer":0,
			"byteLength":2100,
			"byteOffset":126972,
			"target":34963
		},
		{
			"buffer":0,
			"byteLength":5760,
			"byteOffset":129072,
			"target":34962
		},
		{
			"buffer":0,
			"byteLength":5760,
			"byteOffset":134832,
			"target":34962
		},
		{
			"buffer":0,
			"byteLength":960,
			"byteOffset":140592,
			"target":34963
		},
		{
			"buffer":0,
			"byteLength":4152,
			"byteOffset":141552,
			"target":34962
		},
		{
			"buffer":0,
			"byteLength":4152,
			"byteOffset":145704,
			"target":34962
		},
		{
			"buffer":0,
			"byteLength":900,
			"byteOffset":149856,
			"target":34963
		},
		{
			"buffer":0,
			"byteLength":2124,
			"byteOffset":150756,
			"target":34962
		},
		{
			"buffer":0,
			"byteLength":2124,
			"byteOffset":152880,
			"target":34962
		},
		{
			"buffer":0,
			"byteLength":1344,
			"byteOffset":155004,
			"target":34963
		},
		{
			"buffer":0,
			"byteLength":11088,
			"byteOffset":156348,
			"target":34962
		},
		{
			"buffer":0,
			"byteLength":11088,
			"byteOffset":167436,
			"target":34962
		},
		{
			"buffer":0,
			"byteLength":3240,
			"byteOffset":178524,
			"target":34963
		},
		{
			"buffer":0,
			"byteLength":3768,
			"byteOffset":181764,
			"target":34962
		},
		{
			"buffer":0,
			"byteLength":3768,
			"byteOffset":185532,
			"target":34962
		},
		{
			"buffer":0,
			"byteLength":900,
			"byteOffset":189300,
			"target":34963
		},
		{
			"buffer":0,
			"byteLength":4848,
			"byteOffset":190200,
			"target":34962
		},
		{
			"buffer":0,
			"byteLength":4848,
			"byteOffset":195048,
			"target":34962
		}
	],
	"buffers":[
		{
			"byteLength":199896,
			"uri":"data:application/octet-stream;base64,"
		}
	]
}
