{
	"asset":{
		"generator":"Khronos glTF Blender I/O v3.5.30",
		"version":"2.0"
	},
	"scene":0,
	"scenes":[
		{
			"name":"Scene",
			"nodes":[
				1,
				4
			]
		}
	],
	"nodes":[
		{
			"name":"School.obj.cleaner.materialmerger.gles"
		},
		{
			"children":[
				0
			],
			"name":"Sketchfab_model",
			"rotation":[
				-0.70710688829422,
				0,
				0,
				0.7071066498756409
			]
		},
		{
			"mesh":0,
			"name":"Object_3",
			"rotation":[
				0,
				0,
				0.9999449849128723,
				0.010489669628441334
			],
			"translation":[
				234.2293243408203,
				-216.70309448242188,
				-0.00010218282841378823
			]
		},
		{
			"children":[
				2
			],
			"name":"School.obj.cleaner.materialmerger.gles.001"
		},
		{
			"children":[
				3
			],
			"name":"Sketchfab_model.001",
			"rotation":[
				-0.7071069478988647,
				0,
				0,
				0.7071065902709961
			],
			"scale":[
				0.019999999552965164,
				0.020000001415610313,
				0.020000001415610313
			]
		}
	],
	"materials":[
		{
			"doubleSided":true,
			"emissiveFactor":[
				1,
				1,
				1
			],
			"emissiveTexture":{
				"index":0
			},
			"name":"phong1SG.001",
			"pbrMetallicRoughness":{
				"baseColorTexture":{
					"index":1
				},
				"metallicFactor":0,
				"roughnessFactor":0.6000000238418579
			}
		}
	],
	"meshes":[
		{
			"name":"Object_1.001",
			"primitives":[
				{
					"attributes":{
						"POSITION":0,
						"TEXCOORD_0":1,
						"NORMAL":2
					},
					"indices":3,
					"material":0
				}
			]
		}
	],
	"textures":[
		{
			"sampler":0,
			"source":0
		},
		{
			"sampler":0,
			"source":1
		}
	],
	"images":[
		{
			"bufferView":4,
			"mimeType":"image/png",
			"name":"phong1SG_emissive"
		},
		{
			"bufferView":5,
			"mimeType":"image/png",
			"name":"phong1SG_baseColor"
		}
	],
	"accessors":[
		{
			"bufferView":0,
			"componentType":5126,
			"count":3815,
			"max":[
				736.4752197265625,
				526.0089111328125,
				1118.0406494140625
			],
			"min":[
				-320.7765808105469,
				-531.7871704101562,
				60.760108947753906
			],
			"type":"VEC3"
		},
		{
			"bufferView":1,
			"componentType":5126,
			"count":3815,
			"type":"VEC2"
		},
		{
			"bufferView":2,
			"componentType":5126,
			"count":3815,
			"type":"VEC3"
		},
		{
			"bufferView":3,
			"componentType":5123,
			"count":6462,
			"type":"SCALAR"
		}
	],
	"bufferViews":[
		{
			"buffer":0,
			"byteLength":45780,
			"byteOffset":0,
			"target":34962
		},
		{
			"buffer":0,
			"byteLength":30520,
			"byteOffset":45780,
			"target":34962
		},
		{
			"buffer":0,
			"byteLength":45780,
			"byteOffset":76300,
			"target":34962
		},
		{
			"buffer":0,
			"byteLength":12924,
			"byteOffset":122080,
			"target":34963
		},
		{
			"buffer":0,
			"byteLength":10582,
			"byteOffset":135004
		},
		{
			"buffer":0,
			"byteLength":474926,
			"byteOffset":145588
		}
	],
	"samplers":[
		{
			"magFilter":9729,
			"minFilter":9987
		}
	],
	"buffers":[
		{
			"byteLength":620516,
			"uri":"data:application/octet-stream;base64,"
		}
	]
}
