{
  "accessors": [
    {
      "bufferView": 2,
      "componentType": 5126,
      "count": 904,
      "max": [
        4.262168884277344,
        11.509652137756348,
        -0.9520769715309143
      ],
      "min": [
        0.3843809962272644,
        0.0,
        -4.667792797088623
      ],
      "type": "VEC3"
    },
    {
      "bufferView": 2,
      "byteOffset": 10848,
      "componentType": 5126,
      "count": 904,
      "max": [
        1.0,
        1.0,
        1.0
      ],
      "min": [
        -1.0,
        -1.0,
        -1.0
      ],
      "type": "VEC3"
    },
    {
      "bufferView": 1,
      "componentType": 5126,
      "count": 904,
      "max": [
        0.18761956691741943,
        0.4735654294490814
      ],
      "min": [
        -0.18749727308750153,
        -0.09137270599603653
      ],
      "type": "VEC2"
    },
    {
      "bufferView": 1,
      "byteOffset": 7232,
      "componentType": 5126,
      "count": 904,
      "max": [
        0.18761956691741943,
        0.4735654294490814
      ],
      "min": [
        -0.18749727308750153,
        -0.09137270599603653
      ],
      "type": "VEC2"
    },
    {
      "bufferView": 1,
      "byteOffset": 14464,
      "componentType": 5126,
      "count": 904,
      "max": [
        0.18761956691741943,
        0.4735654294490814
      ],
      "min": [
        -0.18749727308750153,
        -0.09137270599603653
      ],
      "type": "VEC2"
    },
    {
      "bufferView": 1,
      "byteOffset": 21696,
      "componentType": 5126,
      "count": 904,
      "max": [
        0.18761956691741943,
        0.4735654294490814
      ],
      "min": [
        -0.18749727308750153,
        -0.09137270599603653
      ],
      "type": "VEC2"
    },
    {
      "bufferView": 1,
      "byteOffset": 28928,
      "componentType": 5126,
      "count": 904,
      "max": [
        0.18761956691741943,
        0.4735654294490814
      ],
      "min": [
        -0.18749727308750153,
        -0.09137270599603653
      ],
      "type": "VEC2"
    },
    {
      "bufferView": 1,
      "byteOffset": 36160,
      "componentType": 5126,
      "count": 904,
      "max": [
        0.18761956691741943,
        0.4735654294490814
      ],
      "min": [
        -0.18749727308750153,
        -0.09137270599603653
      ],
      "type": "VEC2"
    },
    {
      "bufferView": 1,
      "byteOffset": 43392,
      "componentType": 5126,
      "count": 904,
      "max": [
        0.18761956691741943,
        0.4735654294490814
      ],
      "min": [
        -0.18749727308750153,
        -0.09137270599603653
      ],
      "type": "VEC2"
    },
    {
      "bufferView": 1,
      "byteOffset": 50624,
      "componentType": 5126,
      "count": 904,
      "max": [
        0.18761956691741943,
        0.4735654294490814
      ],
      "min": [
        -0.18749727308750153,
        -0.09137270599603653
      ],
      "type": "VEC2"
    },
    {
      "bufferView": 1,
      "byteOffset": 57856,
      "componentType": 5126,
      "count": 904,
      "max": [
        0.18761956691741943,
        0.4735654294490814
      ],
      "min": [
        -0.18749727308750153,
        -0.09137270599603653
      ],
      "type": "VEC2"
    },
    {
      "bufferView": 1,
      "byteOffset": 65088,
      "componentType": 5126,
      "count": 904,
      "max": [
        0.18761956691741943,
        0.4735654294490814
      ],
      "min": [
        -0.18749727308750153,
        -0.09137270599603653
      ],
      "type": "VEC2"
    },
    {
      "bufferView": 0,
      "componentType": 5125,
      "count": 1320,
      "type": "SCALAR"
    }
  ],
  "asset": {
    "extras": {
      "author": "Nikita Borovkov (https://sketchfab.com/NickBorovik)",
      "license": "CC-BY-4.0 (http://creativecommons.org/licenses/by/4.0/)",
      "source": "https://sketchfab.com/3d-models/low-poly-statue-5e7b33ada6534c95a9bc3144e86daa5c",
      "title": "Low-Poly Statue"
    },
    "generator": "Sketchfab-12.65.0",
    "version": "2.0"
  },
  "bufferViews": [
    {
      "buffer": 0,
      "byteLength": 5280,
      "name": "floatBufferViews",
      "target": 34963
    },
    {
      "buffer": 0,
      "byteLength": 72320,
      "byteOffset": 5280,
      "byteStride": 8,
      "name": "floatBufferViews",
      "target": 34962
    },
    {
      "buffer": 0,
      "byteLength": 21696,
      "byteOffset": 77600,
      "byteStride": 12,
      "name": "floatBufferViews",
      "target": 34962
    }
  ],
  "buffers": [
    {
      "byteLength": 99296,
      "uri": "statue.bin"
    }
  ],
  "materials": [
    {
      "doubleSided": true,
      "name": "FrontColor",
      "pbrMetallicRoughness": {
        "metallicFactor": 0.0,
        "roughnessFactor": 0.6
      }
    }
  ],
  "meshes": [
    {
      "name": "Mesh1_FrontColor_0",
      "primitives": [
        {
          "attributes": {
            "NORMAL": 1,
            "POSITION": 0,
            "TEXCOORD_0": 2,
            "TEXCOORD_1": 3,
            "TEXCOORD_2": 4,
            "TEXCOORD_3": 5,
            "TEXCOORD_4": 6,
            "TEXCOORD_5": 7,
            "TEXCOORD_6": 8,
            "TEXCOORD_7": 9,
            "TEXCOORD_8": 10,
            "TEXCOORD_9": 11
          },
          "indices": 12,
          "material": 0,
          "mode": 4
        }
      ]
    }
  ],
  "nodes": [
    {
      "children": [
        1
      ],
      "matrix": [
        1.0,
        0.0,
        0.0,
        0.0,
        0.0,
        2.220446049250313e-16,
        -1.0,
        0.0,
        0.0,
        1.0,
        2.220446049250313e-16,
        0.0,
        0.0,
        0.0,
        0.0,
        1.0
      ],
      "name": "Sketchfab_model"
    },
    {
      "children": [
        2
      ],
      "matrix": [
        1.0,
        0.0,
        0.0,
        0.0,
        0.0,
        0.0,
        1.0,
        0.0,
        0.0,
        -1.0,
        0.0,
        0.0,
        0.0,
        0.0,
        0.0,
        1.0
      ],
      "name": "7fdcca04fb424f299633f3590f76391d.fbx"
    },
    {
      "children": [
        3
      ],
      "name": "RootNode"
    },
    {
      "children": [
        4
      ],
      "name": "Model"
    },
    {
      "children": [
        5
      ],
      "name": "Mesh1"
    },
    {
      "mesh": 0,
      "name": "Mesh1_FrontColor_0"
    }
  ],
  "scene": 0,
  "scenes": [
    {
      "name": "Sketchfab_Scene",
      "nodes": [
        0
      ]
    }
  ]
}
