{
	"asset":{
		"generator":"Khronos glTF Blender I/O v3.5.30",
		"version":"2.0"
	},
	"scene":0,
	"scenes":[
		{
			"name":"Scene",
			"nodes":[
				3,
				4
			]
		}
	],
	"nodes":[
		{
			"mesh":0,
			"name":"Curtains_0",
			"rotation":[
				-0.14843733608722687,
				0.0005883899284526706,
				0.9889094829559326,
				0.004909220617264509
			],
			"translation":[
				-0.12518085539340973,
				0.00257894117385149,
				-0.02334802784025669
			]
		},
		{
			"children":[
				0
			],
			"name":"Curtains",
			"translation":[
				0,
				0,
				2.9631400108337402
			]
		},
		{
			"children":[
				1
			],
			"name":"Root"
		},
		{
			"children":[
				2
			],
			"name":"Sketchfab_model",
			"rotation":[
				0.05783238261938095,
				-0.7047378420829773,
				-0.7033971548080444,
				0.07233584672212601
			],
			"translation":[
				0.2700820863246918,
				0.025811076164245605,
				-0.008260071277618408
			]
		},
		{
			"mesh":1,
			"name":"Theatre",
			"rotation":[
				0.47161421179771423,
				-0.5264603495597839,
				0.45710498094558716,
				0.5398839712142944
			],
			"scale":[
				0.5458601713180542,
				0.5458601713180542,
				0.5458601713180542
			],
			"translation":[
				-0.29567646980285645,
				2.4325554370880127,
				-0.8420163989067078
			]
		}
	],
	"materials":[
		{
			"alphaCutoff":0,
			"alphaMode":"MASK",
			"doubleSided":true,
			"name":"new",
			"pbrMetallicRoughness":{
				"baseColorFactor":[
					1,
					0.20102974772453308,
					0.2766225039958954,
					1
				],
				"metallicFactor":0,
				"roughnessFactor":0.6399999856948853
			}
		},
		{
			"alphaCutoff":0,
			"alphaMode":"MASK",
			"doubleSided":true,
			"name":"new.001",
			"pbrMetallicRoughness":{
				"baseColorFactor":[
					0.9161271452903748,
					1,
					0.9883829951286316,
					1
				],
				"metallicFactor":0,
				"roughnessFactor":0.29500001668930054
			}
		}
	],
	"meshes":[
		{
			"name":"Curtains_0",
			"primitives":[
				{
					"attributes":{
						"COLOR_0":0,
						"POSITION":1,
						"TEXCOORD_0":2,
						"NORMAL":3
					},
					"indices":4,
					"material":0
				}
			]
		},
		{
			"name":"Text",
			"primitives":[
				{
					"attributes":{
						"POSITION":5,
						"TEXCOORD_0":6,
						"NORMAL":7
					},
					"indices":8,
					"material":1
				}
			]
		}
	],
	"accessors":[
		{
			"bufferView":0,
			"componentType":5123,
			"count":289,
			"normalized":true,
			"type":"VEC4"
		},
		{
			"bufferView":1,
			"componentType":5126,
			"count":289,
			"max":[
				0.03466999903321266,
				1.1578099727630615,
				0.07823000103235245
			],
			"min":[
				-0.08066000044345856,
				-1.1595799922943115,
				-2.9619200229644775
			],
			"type":"VEC3"
		},
		{
			"bufferView":2,
			"componentType":5126,
			"count":289,
			"type":"VEC2"
		},
		{
			"bufferView":3,
			"componentType":5126,
			"count":289,
			"type":"VEC3"
		},
		{
			"bufferView":4,
			"componentType":5123,
			"count":303,
			"type":"SCALAR"
		},
		{
			"bufferView":5,
			"componentType":5126,
			"count":2228,
			"max":[
				3.185000419616699,
				0.019999999552965164,
				0.009000000543892384
			],
			"min":[
				0.017000000923871994,
				-0.019999999552965164,
				-0.6820000410079956
			],
			"type":"VEC3"
		},
		{
			"bufferView":6,
			"componentType":5126,
			"count":2228,
			"type":"VEC2"
		},
		{
			"bufferView":7,
			"componentType":5126,
			"count":2228,
			"type":"VEC3"
		},
		{
			"bufferView":8,
			"componentType":5123,
			"count":6552,
			"type":"SCALAR"
		}
	],
	"bufferViews":[
		{
			"buffer":0,
			"byteLength":2312,
			"byteOffset":0,
			"target":34962
		},
		{
			"buffer":0,
			"byteLength":3468,
			"byteOffset":2312,
			"target":34962
		},
		{
			"buffer":0,
			"byteLength":2312,
			"byteOffset":5780,
			"target":34962
		},
		{
			"buffer":0,
			"byteLength":3468,
			"byteOffset":8092,
			"target":34962
		},
		{
			"buffer":0,
			"byteLength":606,
			"byteOffset":11560,
			"target":34963
		},
		{
			"buffer":0,
			"byteLength":26736,
			"byteOffset":12168,
			"target":34962
		},
		{
			"buffer":0,
			"byteLength":17824,
			"byteOffset":38904,
			"target":34962
		},
		{
			"buffer":0,
			"byteLength":26736,
			"byteOffset":56728,
			"target":34962
		},
		{
			"buffer":0,
			"byteLength":13104,
			"byteOffset":83464,
			"target":34963
		}
	],
	"buffers":[
		{
			"byteLength":96568,
			"uri":"data:application/octet-stream;base64,"
		}
	]
}
